<svg width="96" height="96" viewBox="0 0 96 96" fill="none" xmlns="http://www.w3.org/2000/svg">
  <!-- Sino de alerta -->
  <path d="M48 8C46.8954 8 46 8.89543 46 10V14.874C37.6478 16.0948 31 23.1734 31 31.75V52L24 59V63H72V59L65 52V31.75C65 23.1734 58.3522 16.0948 50 14.874V10C50 8.89543 49.1046 8 48 8Z" fill="white"/>
  <path d="M54 71C54 74.3137 51.3137 77 48 77C44.6863 77 42 74.3137 42 71H54Z" fill="white"/>
  <!-- Ponto de exclamação -->
  <circle cx="70" cy="26" r="12" fill="white"/>
  <rect x="68" y="20" width="4" height="8" rx="2" fill="black"/>
  <circle cx="70" cy="32" r="2" fill="black"/>
</svg>
